<mxfile host="app.diagrams.net" modified="2022-09-13T22:58:35.744Z" agent="5.0 (Macintosh)" etag="XDvIxIZJ81U0EOK8o00T" version="20.3.0" type="github">
  <diagram id="hoYneBbm79Jufh7Rjb7N" name="Page-1">
    <mxGraphModel dx="946" dy="547" grid="1" gridSize="10" guides="1" tooltips="1" connect="1" arrows="1" fold="1" page="1" pageScale="1" pageWidth="850" pageHeight="1100" math="0" shadow="0">
      <root>
        <mxCell id="0" />
        <mxCell id="1" parent="0" />
        <mxCell id="B2TcEgf7XYzjqNK9tmCN-1" value="Professional Tools" style="shape=ext;double=1;rounded=1;whiteSpace=wrap;html=1;fillColor=#d5e8d4;strokeColor=#82b366;" parent="1" vertex="1">
          <mxGeometry x="160" y="199" width="120" height="80" as="geometry" />
        </mxCell>
        <mxCell id="B2TcEgf7XYzjqNK9tmCN-2" value="Coaching Tools" style="shape=ext;double=1;rounded=1;whiteSpace=wrap;html=1;fillColor=#d5e8d4;strokeColor=#82b366;" parent="1" vertex="1">
          <mxGeometry x="160" y="319" width="120" height="80" as="geometry" />
        </mxCell>
        <mxCell id="B2TcEgf7XYzjqNK9tmCN-3" value="Patient Tools" style="shape=ext;double=1;rounded=1;whiteSpace=wrap;html=1;fillColor=#d5e8d4;strokeColor=#82b366;" parent="1" vertex="1">
          <mxGeometry x="160" y="439" width="120" height="80" as="geometry" />
        </mxCell>
        <mxCell id="B2TcEgf7XYzjqNK9tmCN-4" value="Care Program System" style="shape=ext;double=1;rounded=1;whiteSpace=wrap;html=1;fillColor=#fff2cc;strokeColor=#d6b656;" parent="1" vertex="1">
          <mxGeometry x="360" y="199" width="120" height="80" as="geometry" />
        </mxCell>
        <mxCell id="B2TcEgf7XYzjqNK9tmCN-5" value="Goals + Ratings + Incentives System" style="shape=ext;double=1;rounded=1;whiteSpace=wrap;html=1;fillColor=#fff2cc;strokeColor=#d6b656;" parent="1" vertex="1">
          <mxGeometry x="360" y="319" width="120" height="80" as="geometry" />
        </mxCell>
        <mxCell id="B2TcEgf7XYzjqNK9tmCN-6" value="Sync + Async Communication System" style="shape=ext;double=1;rounded=1;whiteSpace=wrap;html=1;fillColor=#fff2cc;strokeColor=#d6b656;" parent="1" vertex="1">
          <mxGeometry x="360" y="439" width="120" height="80" as="geometry" />
        </mxCell>
        <mxCell id="B2TcEgf7XYzjqNK9tmCN-9" value="PCP" style="text;strokeColor=none;fillColor=none;html=1;fontSize=11;fontStyle=1;verticalAlign=middle;align=center;" parent="1" vertex="1">
          <mxGeometry x="30" y="219" width="100" height="40" as="geometry" />
        </mxCell>
        <mxCell id="B2TcEgf7XYzjqNK9tmCN-10" value="Coach" style="text;strokeColor=none;fillColor=none;html=1;fontSize=11;fontStyle=1;verticalAlign=middle;align=center;" parent="1" vertex="1">
          <mxGeometry x="30" y="339" width="100" height="40" as="geometry" />
        </mxCell>
        <mxCell id="B2TcEgf7XYzjqNK9tmCN-11" value="Patient" style="text;strokeColor=none;fillColor=none;html=1;fontSize=11;fontStyle=1;verticalAlign=middle;align=center;" parent="1" vertex="1">
          <mxGeometry x="30" y="459" width="100" height="40" as="geometry" />
        </mxCell>
        <mxCell id="B2TcEgf7XYzjqNK9tmCN-12" value="Care Program Manager Tool" style="shape=ext;double=1;rounded=1;whiteSpace=wrap;html=1;fillColor=#e1d5e7;strokeColor=#9673a6;" parent="1" vertex="1">
          <mxGeometry x="560" y="199" width="120" height="80" as="geometry" />
        </mxCell>
        <mxCell id="B2TcEgf7XYzjqNK9tmCN-13" value="Coach Supervision Tool" style="shape=ext;double=1;rounded=1;whiteSpace=wrap;html=1;fillColor=#e1d5e7;strokeColor=#9673a6;" parent="1" vertex="1">
          <mxGeometry x="560" y="319" width="120" height="80" as="geometry" />
        </mxCell>
        <mxCell id="B2TcEgf7XYzjqNK9tmCN-14" value="Patient Incentive Management Tool" style="shape=ext;double=1;rounded=1;whiteSpace=wrap;html=1;fillColor=#e1d5e7;strokeColor=#9673a6;" parent="1" vertex="1">
          <mxGeometry x="560" y="439" width="120" height="80" as="geometry" />
        </mxCell>
        <mxCell id="B2TcEgf7XYzjqNK9tmCN-15" value="&lt;font style=&quot;font-size: 11px;&quot;&gt;Incentive Manager&lt;br&gt;&lt;/font&gt;" style="text;strokeColor=none;fillColor=none;html=1;fontSize=24;fontStyle=1;verticalAlign=middle;align=center;" parent="1" vertex="1">
          <mxGeometry x="719" y="459" width="100" height="40" as="geometry" />
        </mxCell>
        <mxCell id="B2TcEgf7XYzjqNK9tmCN-16" value="&lt;font style=&quot;font-size: 11px;&quot;&gt;Coach Supervisor&lt;/font&gt;" style="text;strokeColor=none;fillColor=none;html=1;fontSize=24;fontStyle=1;verticalAlign=middle;align=center;" parent="1" vertex="1">
          <mxGeometry x="719" y="339" width="100" height="40" as="geometry" />
        </mxCell>
        <mxCell id="B2TcEgf7XYzjqNK9tmCN-17" value="&lt;font style=&quot;font-size: 11px;&quot;&gt;Clinician Program Manager&lt;/font&gt;" style="text;strokeColor=none;fillColor=none;html=1;fontSize=24;fontStyle=1;verticalAlign=middle;align=center;" parent="1" vertex="1">
          <mxGeometry x="719" y="219" width="100" height="40" as="geometry" />
        </mxCell>
        <mxCell id="B2TcEgf7XYzjqNK9tmCN-18" value="Patient Billing" style="shape=ext;double=1;rounded=1;whiteSpace=wrap;html=1;fillColor=#f5f5f5;strokeColor=#666666;fontColor=#333333;" parent="1" vertex="1">
          <mxGeometry x="360" y="559" width="120" height="80" as="geometry" />
        </mxCell>
        <mxCell id="B2TcEgf7XYzjqNK9tmCN-19" value="Payer Billing" style="shape=ext;double=1;rounded=1;whiteSpace=wrap;html=1;fillColor=#f5f5f5;strokeColor=#666666;fontColor=#333333;" parent="1" vertex="1">
          <mxGeometry x="360" y="80" width="120" height="80" as="geometry" />
        </mxCell>
        <mxCell id="B2TcEgf7XYzjqNK9tmCN-20" value="Outcomes Reporting" style="shape=ext;double=1;rounded=1;whiteSpace=wrap;html=1;fillColor=#dae8fc;strokeColor=#6c8ebf;" parent="1" vertex="1">
          <mxGeometry x="560" y="80" width="120" height="80" as="geometry" />
        </mxCell>
      </root>
    </mxGraphModel>
  </diagram>
</mxfile>
